<?xml version="1.0" encoding="UTF-8"?>
<svg id="Capa_1" data-name="Capa 1" xmlns="http://www.w3.org/2000/svg" viewBox="0 0 851 315">
  <defs>
    <style>
      .cls-1 {
        fill: #fefefe;
      }
    </style>
  </defs>
  <polygon class="cls-1" points="307.58 251.91 258.34 252.04 237.71 144.45 233.76 187.08 223.6 252.01 174.34 251.99 204.06 63.07 252.79 62.96 275.87 176.35 279.18 119.98 288.05 63.03 337.3 62.98 307.58 251.91"/>
  <polygon class="cls-1" points="526.35 154.24 556.31 251.98 501.34 252.02 483.35 166.78 469.55 252.01 418.34 251.99 448.07 63.06 499.29 62.96 487.46 141.6 527.36 62.99 581.35 63.02 526.35 154.24"/>
  <polygon class="cls-1" points="679.38 178.36 640.04 178.52 635.6 207.47 679.3 207.6 672.31 252.01 577.34 251.98 607.08 62.98 702.03 63 695.11 107.42 651.33 107.48 647.32 133.99 686.54 133.99 679.38 178.36"/>
  <polygon class="cls-1" points="388.59 251.93 337.34 252.03 367.06 63.05 418.31 62.97 388.59 251.93"/>
</svg>