<?xml version="1.0" encoding="UTF-8"?>
<svg id="Capa_1" data-name="Capa 1" xmlns="http://www.w3.org/2000/svg" viewBox="0 0 851 315">
  <defs>
    <style>
      .cls-1 {
        font-family: ChipenVariable-ExpandedItalic, 'Chipen Variable';
        font-size: 96.74px;
        font-style: italic;
        font-variation-settings: 'wdth' 200, 'ital' 1;
      }

      .cls-1, .cls-2 {
        fill: #a21a2f;
      }

      .cls-3 {
        fill: #fefefe;
      }

      .cls-4 {
        letter-spacing: -.06em;
      }

      .cls-5 {
        letter-spacing: -.02em;
      }

      .cls-6 {
        letter-spacing: -.05em;
      }

      .cls-7 {
        letter-spacing: -.05em;
      }

      .cls-8 {
        letter-spacing: -.03em;
      }

      .cls-9 {
        letter-spacing: -.03em;
      }

      .cls-10 {
        letter-spacing: 0em;
      }

      .cls-11 {
        letter-spacing: 0em;
      }
    </style>
  </defs>
  <g>
    <g>
      <polygon class="cls-2" points="117.9 91.58 141.23 91.58 144.12 80.95 121.27 80.94 117.9 91.58"/>
      <polygon class="cls-2" points="106.17 129.96 129.5 129.96 132.39 119.33 109.54 119.33 106.17 129.96"/>
      <polygon class="cls-2" points="283.44 119.31 241.62 129.96 703.97 129.96 703.97 129.96 724.08 129.96 727.45 119.33 705.6 119.33 283.44 119.31"/>
      <polygon class="cls-2" points="713.23 80.94 172.6 80.94 170.36 91.58 711.61 91.58 711.61 91.57 731.71 91.58 735.08 80.94 713.23 80.94"/>
    </g>
    <path class="cls-3" d="M528.47,94.74l-31.38,103.2-28.02.21c-2.45.02-5.07.41-8.5-.47l18.26-62.46,12.01-40.48s.54-.01,3.51,0l29.95-.04c1.89,0,4.17.04,4.17.04Z"/>
    <path class="cls-3" d="M417.66,126.29l101.16-107.47,31.81-.25-1.19,5.57-16.81,55.02h-24.72c-1.44,0-12.44,0-12.44,0l1.21-4.09-5.06,6.6-8.31,9.5-26.37,28.1-9.6,10.57-43.87,46.5-7.23-.11-32.78-95.75-12.95,36.28-23.97.08-8.55-.22,5.37-18.35,2.03-6.34,2.93-9.88,19.08-63.39,32.3.2,37.96,107.43Z"/>
    <path class="cls-3" d="M301.1,198.21c-2.12,0-4.36.49-7.35-.68l17.92-62.44c4.24-4.74,19.8-.87,34-2.42l-19.74,65.48-24.83.07Z"/>
    <g>
      <path class="cls-3" d="M720.4,27.89c2.33,8.11,1.87,16.6-.61,25.09l-7.4,25.32-34.7-.58,6.16-21.18,1.57-5.27-93.38.09-9.01,30.46-2.62,9.88-7.97,25.07-26.8.07-8.3-.19,5.73-19.04,1.48-5.9c.84-3.33,2.04-6.44,3.09-9.69,8.51-26.29,14.28-62.57,46.96-62.6l107.58-.09c7.48,0,14.36,3.68,18.22,8.55Z"/>
      <path class="cls-3" d="M567.67,132.66l-9.37,31.2,9.27.4,84.01-.07,8.26-29.44,35.35.07-.83,4.82-8.49,25.95c-6.9,21.08-19.43,32.28-42.18,32.35l-89.92.27c-7.75.02-17.67-.07-21.56-2.01-15.27-6.39-6.89-42.21-.32-63.54.09,0,35.77,0,35.77,0Z"/>
    </g>
    <path class="cls-3" d="M315.08,48.95l-8.9,30.2-25.34.06-8.51-.21,5.28-17.84c.3-1.02,1.46-5.3.11-7.72s-5.18-2.99-7.2-2.99l-83.04-.18-9.28,31.6c-.92,3.14-5.05,17.57-4.98,17.43s85.71,0,85.71,0c4.08,0,6.09-4.57,6.09-4.57h34.69c.65,0,1.31,0,1.31,0,0,0-1.18,4.41-1.28,4.71-2.24,7.15-5.9,14.26-11.04,19.86-4.9,5.34-12.15,8.13-18.94,10.58-9.92,0-19.47,1.15-31.65.88l47.64,67.03-49.67.35-3.12-5.09-33.93-56.74c-.6-.89-1.29-5.35-3.31-5.36l-32.44-.25-20.22,67.45h-34.46s18.48-62.2,18.48-62.2l2-6.39,2.95-9.89,6.46-22.15c.55-1.9,23.9-78.82,23.9-78.82l131.7.13c4.49,0,14.53,3.04,18.98,9.76,4.3,6.51,3.09,16.64,2,20.36Z"/>
  </g>
  <text class="cls-1" transform="translate(69.38 285.81)"><tspan class="cls-11" x="0" y="0">M</tspan><tspan class="cls-9" x="86.47" y="0">O</tspan><tspan x="156.71" y="0">C</tspan><tspan class="cls-6" x="227.13" y="0">K</tspan><tspan class="cls-10" x="294.1" y="0">U</tspan><tspan class="cls-7" x="363.48" y="0">P</tspan><tspan class="cls-4" x="429.15" y="0">T</tspan><tspan class="cls-8" x="493.79" y="0">O</tspan><tspan class="cls-5" x="564.03" y="0">O</tspan><tspan x="635.66" y="0">L</tspan></text>
</svg>